HIERARCHY
ROOT SpineBase
{
  OFFSET 0.000000 0.000000 0.000000
  CHANNELS 6 Xposition Yposition Zposition Zrotation Xrotation Yrotation
  JOINT SpineMid
  {
    OFFSET -0.000000 33.289550 0.000000
    CHANNELS 3 Zrotation Xrotation Yrotation
    JOINT SpineShoulder
    {
      OFFSET 0.061122 24.722381 -0.842860
      CHANNELS 3 Zrotation Xrotation Yrotation
      JOINT Neck
      {
        OFFSET 0.023731 8.172634 -0.653805
        CHANNELS 3 Zrotation Xrotation Yrotation
        JOINT Head
        {
          OFFSET 5.991264 12.236795 4.680183
          CHANNELS 3 Zrotation Xrotation Yrotation
          End Site
          {
            OFFSET 0 0 0
          }
        }
      }
      JOINT ShoulderLeft
      {
        OFFSET -7.512344 -4.284044 -12.260781
        CHANNELS 3 Zrotation Xrotation Yrotation
        JOINT ElbowLeft
        {
          OFFSET -5.846821 -23.645417 -5.783102
          CHANNELS 3 Zrotation Xrotation Yrotation
          JOINT WristLeft
          {
            OFFSET 2.647873 -25.151809 -2.302123
            CHANNELS 3 Zrotation Xrotation Yrotation
            JOINT HandLeft
            {
              OFFSET 1.186788 -7.394407 1.641100
              CHANNELS 3 Zrotation Xrotation Yrotation
              JOINT HandTipLeft
              {
                OFFSET 0.186017 -8.933977 0.368749
                CHANNELS 3 Zrotation Xrotation Yrotation
                End Site
                {
                  OFFSET 0 0 0
                }
              }
              JOINT ThumbLeft
              {
                OFFSET 3.752583 1.221966 0.182574
                CHANNELS 3 Zrotation Xrotation Yrotation
                End Site
                {
                  OFFSET 0 0 0
                }
              }
            }
          }
        }
      }
      JOINT ShoulderRight
      {
        OFFSET 10.682996 -4.455705 13.598698
        CHANNELS 3 Zrotation Xrotation Yrotation
        JOINT ElbowRight
        {
          OFFSET -1.675462 -24.631730 -1.621628
          CHANNELS 3 Zrotation Xrotation Yrotation
          JOINT WristRight
          {
            OFFSET 18.055075 -16.601784 0.330719
            CHANNELS 3 Zrotation Xrotation Yrotation
            JOINT HandRight
            {
              OFFSET 6.373964 3.001372 -3.584402
              CHANNELS 3 Zrotation Xrotation Yrotation
              JOINT HandTipRight
              {
                OFFSET 0.221087 -0.346175 -0.614197
                CHANNELS 3 Zrotation Xrotation Yrotation
                End Site
                {
                  OFFSET 0 0 0
                }
              }
              JOINT ThumbRight
              {
                OFFSET -0.225772 0.542842 -2.802002
                CHANNELS 3 Zrotation Xrotation Yrotation
                End Site
                {
                  OFFSET 0 0 0
                }
              }
            }
          }
        }
      }
    }
  }
  JOINT HipLeft
  {
    OFFSET -3.910074 2.425499 -9.358431
    CHANNELS 3 Zrotation Xrotation Yrotation
    JOINT KneeLeft
    {
      OFFSET -8.645993 -32.963766 -1.417426
      CHANNELS 3 Zrotation Xrotation Yrotation
      JOINT AnkleLeft
      {
        OFFSET -9.216966 -38.311342 7.306715
        CHANNELS 3 Zrotation Xrotation Yrotation
        JOINT FootLeft
        {
          OFFSET 8.590382 -3.786398 -9.518369
          CHANNELS 3 Zrotation Xrotation Yrotation
          End Site
          {
            OFFSET 0 0 0
          }
        }
      }
    }
  }
  JOINT HipRight
  {
    OFFSET 3.932704 -0.192911 1.477330
    CHANNELS 3 Zrotation Xrotation Yrotation
    JOINT KneeRight
    {
      OFFSET -1.040544 -30.514991 4.443546
      CHANNELS 3 Zrotation Xrotation Yrotation
      JOINT AnkleRight
      {
        OFFSET -16.086279 -37.791741 7.971783
        CHANNELS 3 Zrotation Xrotation Yrotation
        JOINT FootRight
        {
          OFFSET 1.778715 -7.740324 -4.143865
          CHANNELS 3 Zrotation Xrotation Yrotation
          End Site
          {
            OFFSET 0 0 0
          }
        }
      }
    }
  }
}
MOTION
Frames: 5
Frame Time: 0.033333
-0.527024 77.505103 304.614903 -0.528037 0.296756 -56.521599 0.538798 0.276738 56.521665 -0.000000 0.000000 0.000000 -4.523604 7.842801 -1.725885 0.000000 0.000000 0.000000 -0.727806 1.304225 -0.135630 0.252829 -2.876543 0.013084 -0.820522 2.302693 -0.011823 0.818573 -3.438858 0.085165 0.000000 0.000000 0.000000 0.000000 0.000000 0.000000 0.500124 3.003724 -0.250042 -1.564806 -2.973964 0.185291 1.075526 -0.035805 -0.017004 -0.000000 0.000000 0.000000 0.000000 0.000000 0.000000 0.000000 0.000000 0.000000 0.538798 0.276738 56.521665 0.615454 -0.709019 0.291799 -0.430731 0.294407 -1.699688 0.000000 0.000000 0.000000 0.538798 0.276738 56.521665 -0.000000 0.000000 0.000000 19.150896 9.131060 -9.033402 0.000000 0.000000 0.000000
-0.442278 77.516096 304.660688 -0.435724 0.170514 -56.424069 0.383038 0.268724 56.423819 -0.000000 0.000000 0.000000 -4.626216 7.737635 -1.636041 0.000000 0.000000 0.000000 -0.620051 1.291323 -0.160026 0.243831 -2.752709 0.041672 -0.672613 2.357088 0.059559 0.205273 -3.486875 -0.023513 0.000000 0.000000 0.000000 0.000000 0.000000 0.000000 0.634192 2.732117 -0.242461 -1.700761 -2.702619 0.178706 1.076089 -0.035826 -0.017015 -0.000000 0.000000 0.000000 0.000000 0.000000 0.000000 0.000000 0.000000 0.000000 -0.666604 0.310014 56.217564 1.011938 -1.651390 0.496011 -0.285189 0.341623 -1.657929 0.000000 0.000000 0.000000 0.383038 0.268724 56.423819 -0.000000 0.000000 0.000000 24.886645 15.015747 -11.906676 0.000000 0.000000 0.000000
-0.387830 77.533940 304.654945 -0.379859 0.118263 -56.411809 0.308663 0.251010 56.411524 -0.000000 0.000000 0.000000 -4.716312 7.749892 -1.601829 0.000000 0.000000 0.000000 -0.504905 1.233807 -0.175518 0.107866 -2.593840 0.066735 -0.270929 2.478285 0.154800 0.226950 -3.370253 -0.106619 0.000000 0.000000 0.000000 0.000000 0.000000 0.000000 1.090982 1.530419 -0.190460 -2.166596 -1.500799 0.150271 1.079840 -0.036060 -0.017189 -0.000000 0.000000 0.000000 0.000000 0.000000 0.000000 0.000000 0.000000 0.000000 -0.808039 0.228649 56.203186 1.048290 -1.702397 0.494324 -0.234138 0.372459 -1.645942 0.000000 0.000000 0.000000 0.886477 0.904854 56.535650 -0.864048 0.121508 -0.129038 26.005025 18.044882 -12.416471 0.000000 0.000000 0.000000
-0.328854 77.535563 304.646929 -0.323119 0.082916 -56.362813 0.248019 0.223086 56.362564 -0.000000 0.000000 0.000000 -4.839702 7.793772 -1.566480 0.000000 0.000000 0.000000 -0.386063 1.199083 -0.197377 -0.114015 -2.534452 0.094938 -0.066691 2.505772 0.168862 0.590920 -3.264300 -0.097362 0.000000 0.000000 0.000000 0.000000 0.000000 0.000000 1.811547 -0.667484 -0.063409 -2.893058 0.698976 0.114658 1.080509 -0.035869 -0.016972 -0.000000 0.000000 0.000000 0.000000 0.000000 0.000000 0.000000 0.000000 0.000000 -0.880411 0.151747 56.160017 0.945324 -1.868093 0.499700 -0.096642 0.550433 -1.635085 0.000000 0.000000 0.000000 1.503445 0.882925 56.554794 -1.346270 1.616291 -0.614691 19.903552 14.191826 -8.249407 0.000000 0.000000 0.000000
-0.245699 77.525414 304.638744 -0.245043 0.054212 -56.287940 0.181100 0.173747 56.287782 -0.000000 0.000000 0.000000 -4.959473 7.871095 -1.546814 0.000000 0.000000 0.000000 -0.293281 1.168944 -0.213666 -0.270296 -2.452000 0.119044 -0.006149 2.256683 0.123003 1.167738 -3.376443 -0.026954 0.000000 0.000000 0.000000 0.000000 0.000000 0.000000 2.641235 -3.163365 0.114644 -3.720644 3.199302 0.108184 1.079996 -0.035487 -0.016574 -0.000000 0.000000 0.000000 0.000000 0.000000 0.000000 0.000000 0.000000 0.000000 -0.939710 0.040069 56.096700 0.881801 -1.906217 0.481709 0.012980 0.629207 -1.627398 0.000000 0.000000 0.000000 2.276875 0.809334 56.563263 -1.886694 2.787328 -0.901187 14.401785 9.311021 -5.170663 0.000000 0.000000 0.000000
